<?xml version="1.0" encoding="UTF-8" standalone="no"?>
<!DOCTYPE svg PUBLIC "-//W3C//DTD SVG 1.1//EN" "http://www.w3.org/Graphics/SVG/1.1/DTD/svg11.dtd">
<svg width="100%" height="100%" viewBox="0 0 256 256" version="1.1" xmlns="http://www.w3.org/2000/svg" xmlns:xlink="http://www.w3.org/1999/xlink" xml:space="preserve" xmlns:serif="http://www.serif.com/" style="fill-rule:evenodd;clip-rule:evenodd;stroke-linecap:round;stroke-linejoin:round;stroke-miterlimit:1.5;">
    <g transform="matrix(1,0,0,1,-394,0)">
        <g id="bulbasaur" transform="matrix(1.23077,0,0,1.23077,-91.4345,0)">
            <rect x="394.415" y="0" width="208" height="208" style="fill:none;"/>
            <clipPath id="_clip1">
                <rect x="394.415" y="0" width="208" height="208"/>
            </clipPath>
            <g clip-path="url(#_clip1)">
                <g id="Background">
                </g>
                <g id="Sprite" transform="matrix(0.8125,0,0,0.8125,74.2905,0)">
                    <g transform="matrix(3.35374,0,0,3.35374,117.456,1.70358)">
                        <g transform="matrix(0.545616,0,0,0.545616,37.4384,-6.64948)">
                            <circle cx="100" cy="28" r="8" style="fill:rgb(34,187,119);"/>
                        </g>
                        <g transform="matrix(0.36007,0,0,0.36007,84.7256,9.93451)">
                            <path d="M27.153,5.736L27.159,14.681L20.007,18.264L20.007,18.246L19.993,18.264L12.841,14.681L12.847,5.736L20,9.319L27.153,5.736Z" style="fill:rgb(34,187,119);"/>
                        </g>
                        <g transform="matrix(0.964083,0,0,1,1.78456,-1.42477)">
                            <path d="M90.978,12.848L92.529,20L89.427,20L90.978,12.848Z" style="fill:rgb(153,221,187);"/>
                        </g>
                        <g transform="matrix(0.964083,0,0,1,6.79426,-1.42477)">
                            <path d="M90.978,12.848L92.529,20L89.427,20L90.978,12.848Z" style="fill:rgb(153,221,187);"/>
                        </g>
                        <g transform="matrix(0.191684,0,0,0.191684,66.8227,10.3967)">
                            <path d="M144.415,20L144.415,16L140.415,16L140.415,24L144.415,20Z" style="fill:rgb(238,238,238);"/>
                        </g>
                        <g transform="matrix(-0.191684,0,0,0.191684,117.177,10.3967)">
                            <path d="M144.415,20L144.415,16L140.415,16L140.415,24L144.415,20Z" style="fill:rgb(238,238,238);"/>
                        </g>
                        <g transform="matrix(0.558708,0,0,0.558708,80.8258,4.79505)">
                            <path d="M27.153,5.736L27.159,14.681L20.007,18.264L20.007,18.246L19.993,18.264L12.841,14.681L12.847,5.736L20,9.319L27.153,5.736Z" style="fill:rgb(153,221,187);"/>
                        </g>
                        <path d="M88,13.017L92,14.999L96,12.993" style="fill:none;stroke:rgb(34,187,119);stroke-width:0.03px;"/>
                        <g transform="matrix(1.9434,0,0,1.5271,-85.1774,-5.46427)">
                            <ellipse cx="89.88" cy="11.058" rx="0.385" ry="0.942" style="fill:rgb(8,8,8);"/>
                        </g>
                        <g transform="matrix(1.9434,0,0,1.5271,-80.1677,-5.46427)">
                            <ellipse cx="89.88" cy="11.058" rx="0.385" ry="0.942" style="fill:rgb(8,8,8);"/>
                        </g>
                    </g>
                    <g transform="matrix(4,0,0,4,-1214,-32)">
                        <g transform="matrix(0.46844,0,0,0.46844,400.631,44.4462)">
                            <path d="M27.153,5.736L27.159,14.681L20.007,18.264L20.007,18.246L19.993,18.264L12.841,14.681L12.847,5.736L20,9.319L27.153,5.736Z" style="fill:rgb(153,221,187);"/>
                        </g>
                        <g transform="matrix(0.457463,0,0,0.457463,364.254,34.8507)">
                            <circle cx="100" cy="28" r="8" style="fill:rgb(34,187,119);"/>
                        </g>
                        <path d="M411.659,50.707L412.098,50.487L412.1,53.187L409.941,54.269L409.941,54.264L409.937,54.269L407.777,53.187L407.779,50.487L408.18,50.688L408.18,49.383L411.659,49.383L411.659,50.707Z" style="fill:rgb(34,187,119);"/>
                        <path d="M408.317,52L409.153,56L406.646,56L407.482,52L408.317,52Z" style="fill:rgb(153,221,187);"/>
                        <path d="M412.518,52L413.354,56L410.847,56L411.683,52L412.518,52Z" style="fill:rgb(153,221,187);"/>
                    </g>
                    <g transform="matrix(4,0,0,4,-1150,-32)">
                        <g transform="matrix(0.46844,0,0,0.46844,400.631,44.4462)">
                            <path d="M27.153,5.736L27.159,14.681L20.007,18.264L20.007,18.246L19.993,18.264L12.841,14.681L12.847,5.736L20,9.319L27.153,5.736Z" style="fill:rgb(153,221,187);"/>
                        </g>
                        <g transform="matrix(0.457463,0,0,0.457463,364.254,34.8507)">
                            <circle cx="100" cy="28" r="8" style="fill:rgb(34,187,119);"/>
                        </g>
                        <path d="M411.659,50.707L412.098,50.487L412.1,53.187L409.941,54.269L409.941,54.264L409.937,54.269L407.777,53.187L407.779,50.487L408.18,50.688L408.18,49.383L411.659,49.383L411.659,50.707Z" style="fill:rgb(34,187,119);"/>
                        <g transform="matrix(1,0,0,1,0,-1)">
                            <path d="M408.317,52L409.153,56L406.646,56L407.482,52L408.317,52Z" style="fill:rgb(153,221,187);"/>
                        </g>
                        <path d="M412.518,52L413.354,56L410.847,56L411.683,52L412.518,52Z" style="fill:rgb(153,221,187);"/>
                    </g>
                    <g transform="matrix(4,0,0,4,-1086,-32)">
                        <g transform="matrix(0.46844,0,0,0.46844,400.631,44.4462)">
                            <path d="M27.153,5.736L27.159,14.681L20.007,18.264L20.007,18.246L19.993,18.264L12.841,14.681L12.847,5.736L20,9.319L27.153,5.736Z" style="fill:rgb(153,221,187);"/>
                        </g>
                        <g transform="matrix(0.457463,0,0,0.457463,364.254,34.8507)">
                            <circle cx="100" cy="28" r="8" style="fill:rgb(34,187,119);"/>
                        </g>
                        <path d="M411.659,50.707L412.098,50.487L412.1,53.187L409.941,54.269L409.941,54.264L409.937,54.269L407.777,53.187L407.779,50.487L408.18,50.688L408.18,49.383L411.659,49.383L411.659,50.707Z" style="fill:rgb(34,187,119);"/>
                        <path d="M408.317,52L409.153,56L406.646,56L407.482,52L408.317,52Z" style="fill:rgb(153,221,187);"/>
                        <path d="M412.518,52L413.354,56L410.847,56L411.683,52L412.518,52Z" style="fill:rgb(153,221,187);"/>
                    </g>
                    <g transform="matrix(4,0,0,4,-1022,-32)">
                        <g transform="matrix(0.46844,0,0,0.46844,400.631,44.4462)">
                            <path d="M27.153,5.736L27.159,14.681L20.007,18.264L20.007,18.246L19.993,18.264L12.841,14.681L12.847,5.736L20,9.319L27.153,5.736Z" style="fill:rgb(153,221,187);"/>
                        </g>
                        <g transform="matrix(0.457463,0,0,0.457463,364.254,34.8507)">
                            <circle cx="100" cy="28" r="8" style="fill:rgb(34,187,119);"/>
                        </g>
                        <path d="M411.659,50.707L412.098,50.487L412.1,53.187L409.941,54.269L409.941,54.264L409.937,54.269L407.777,53.187L407.779,50.487L408.18,50.688L408.18,49.383L411.659,49.383L411.659,50.707Z" style="fill:rgb(34,187,119);"/>
                        <path d="M408.317,52L409.153,56L406.646,56L407.482,52L408.317,52Z" style="fill:rgb(153,221,187);"/>
                        <g transform="matrix(1,0,0,1,0,-1)">
                            <path d="M412.518,52L413.354,56L410.847,56L411.683,52L412.518,52Z" style="fill:rgb(153,221,187);"/>
                        </g>
                    </g>
                    <g transform="matrix(-3.98878,0,0,3.98878,2449.9,32.2692)">
                        <g transform="matrix(0.457463,0,0,0.457463,462.321,2.81699)">
                            <circle cx="100" cy="28" r="8" style="fill:rgb(34,187,119);"/>
                        </g>
                        <g transform="matrix(-1,0,0,1,1013.95,0)">
                            <path d="M505.653,20L504.814,20L503.727,24L506.74,24L505.653,20Z" style="fill:rgb(153,221,187);"/>
                        </g>
                        <g transform="matrix(-1,0,0,1,1013.54,0.0337495)">
                            <path d="M508.984,20L508.135,20L507.306,23.966L509.813,23.966L508.984,20Z" style="fill:rgb(153,221,187);"/>
                        </g>
                        <path d="M504.772,20.618L503.75,20.618L503.745,20.616L505.884,18.457L511.226,18.459L509.088,20.616L509.088,20.616L509.087,20.617L509.086,20.618L509.085,20.618L506.931,21.697L506.929,21.695L506.927,21.697L504.772,20.618Z" style="fill:rgb(34,187,119);"/>
                        <g transform="matrix(-1,0,0,1,1013.73,0)">
                            <path d="M505.653,20L504.814,20L503.727,24L506.74,24L505.653,20Z" style="fill:rgb(153,221,187);"/>
                        </g>
                        <g transform="matrix(-1,0,0,1,1013.73,0.0337495)">
                            <path d="M508.984,20L508.135,20L507.306,23.966L509.813,23.966L508.984,20Z" style="fill:rgb(153,221,187);"/>
                        </g>
                        <g transform="matrix(0.160714,0,0,0.160714,481.958,17.1091)">
                            <path d="M144.415,20L144.415,16L140.415,16L140.415,24L144.415,20Z" style="fill:rgb(238,238,238);"/>
                        </g>
                        <path d="M506.421,18.457L511.226,18.457L506.421,18.457Z" style="fill:none;stroke:rgb(153,221,187);stroke-width:0.03px;stroke-linecap:butt;"/>
                        <path d="M503.067,16.778L506.418,15.1L506.421,19.289L503.071,20.968L503.071,20.96L503.067,20.964L503.067,16.778Z" style="fill:rgb(153,221,187);"/>
                        <g transform="matrix(1.62941,0,0,1.28037,358.293,3.87495)">
                            <ellipse cx="89.88" cy="11.058" rx="0.385" ry="0.942" style="fill:rgb(8,8,8);"/>
                        </g>
                    </g>
                    <g transform="matrix(3.98878,0,0,3.98878,-1597.9,160.269)">
                        <g transform="matrix(0.457463,0,0,0.457463,462.321,2.81699)">
                            <circle cx="100" cy="28" r="8" style="fill:rgb(34,187,119);"/>
                        </g>
                        <g transform="matrix(-1,0,0,1,1013.95,0)">
                            <path d="M505.653,20L504.814,20L503.727,24L506.74,24L505.653,20Z" style="fill:rgb(153,221,187);"/>
                        </g>
                        <g transform="matrix(-1,0,0,1,1013.54,0.0337495)">
                            <path d="M508.984,20L508.135,20L507.306,23.966L509.813,23.966L508.984,20Z" style="fill:rgb(153,221,187);"/>
                        </g>
                        <path d="M504.772,20.618L503.75,20.618L503.745,20.616L505.884,18.457L511.226,18.459L509.088,20.616L509.088,20.616L509.087,20.617L509.086,20.618L509.085,20.618L506.931,21.697L506.929,21.695L506.927,21.697L504.772,20.618Z" style="fill:rgb(34,187,119);"/>
                        <g transform="matrix(-1,0,0,1,1013.73,0)">
                            <path d="M505.653,20L504.814,20L503.727,24L506.74,24L505.653,20Z" style="fill:rgb(153,221,187);"/>
                        </g>
                        <g transform="matrix(-1,0,0,1,1013.73,0.0337495)">
                            <path d="M508.984,20L508.135,20L507.306,23.966L509.813,23.966L508.984,20Z" style="fill:rgb(153,221,187);"/>
                        </g>
                        <g transform="matrix(0.160714,0,0,0.160714,481.958,17.1091)">
                            <path d="M144.415,20L144.415,16L140.415,16L140.415,24L144.415,20Z" style="fill:rgb(238,238,238);"/>
                        </g>
                        <path d="M506.421,18.457L511.226,18.457L506.421,18.457Z" style="fill:none;stroke:rgb(153,221,187);stroke-width:0.03px;stroke-linecap:butt;"/>
                        <path d="M503.067,16.778L506.418,15.1L506.421,19.289L503.071,20.968L503.071,20.96L503.067,20.964L503.067,16.778Z" style="fill:rgb(153,221,187);"/>
                        <g transform="matrix(1.62941,0,0,1.28037,358.293,3.87495)">
                            <ellipse cx="89.88" cy="11.058" rx="0.385" ry="0.942" style="fill:rgb(8,8,8);"/>
                        </g>
                    </g>
                    <g transform="matrix(-3.98878,0,0,3.98878,2512.39,32.2692)">
                        <g transform="matrix(0.457463,0,0,0.457463,462.321,2.81699)">
                            <circle cx="100" cy="28" r="8" style="fill:rgb(34,187,119);"/>
                        </g>
                        <g transform="matrix(-0.707107,0.707107,0.707107,0.707107,851.611,-351.324)">
                            <path d="M505.653,20L504.814,20L503.727,24L506.74,24L505.653,20Z" style="fill:rgb(153,221,187);"/>
                        </g>
                        <g transform="matrix(-0.766044,-0.642788,-0.642788,0.766044,907.591,331.624)">
                            <path d="M508.984,20L508.135,20L507.306,23.966L509.813,23.966L508.984,20Z" style="fill:rgb(153,221,187);"/>
                        </g>
                        <path d="M504.772,20.618L503.75,20.618L503.745,20.616L505.884,18.457L511.226,18.459L509.088,20.616L509.088,20.616L509.087,20.617L509.086,20.618L509.085,20.618L506.931,21.697L506.929,21.695L506.927,21.697L504.772,20.618Z" style="fill:rgb(34,187,119);"/>
                        <g transform="matrix(-1,0,0,1,1013.73,0)">
                            <path d="M505.653,20L504.814,20L503.727,24L506.74,24L505.653,20Z" style="fill:rgb(153,221,187);"/>
                        </g>
                        <g transform="matrix(-1,0,0,1,1013.73,0.0337495)">
                            <path d="M508.984,20L508.135,20L507.306,23.966L509.813,23.966L508.984,20Z" style="fill:rgb(153,221,187);"/>
                        </g>
                        <g transform="matrix(0.160714,0,0,0.160714,481.958,17.1091)">
                            <path d="M144.415,20L144.415,16L140.415,16L140.415,24L144.415,20Z" style="fill:rgb(238,238,238);"/>
                        </g>
                        <path d="M506.421,18.457L511.226,18.457L506.421,18.457Z" style="fill:none;stroke:rgb(153,221,187);stroke-width:0.03px;stroke-linecap:butt;"/>
                        <path d="M503.067,16.778L506.418,15.1L506.421,19.289L503.071,20.968L503.071,20.96L503.067,20.964L503.067,16.778Z" style="fill:rgb(153,221,187);"/>
                        <g transform="matrix(1.62941,0,0,1.28037,358.293,3.87495)">
                            <ellipse cx="89.88" cy="11.058" rx="0.385" ry="0.942" style="fill:rgb(8,8,8);"/>
                        </g>
                    </g>
                    <g transform="matrix(3.98878,0,0,3.98878,-1404.39,160.269)">
                        <g transform="matrix(0.457463,0,0,0.457463,462.321,2.81699)">
                            <circle cx="100" cy="28" r="8" style="fill:rgb(34,187,119);"/>
                        </g>
                        <g transform="matrix(-0.707107,0.707107,0.707107,0.707107,851.611,-351.324)">
                            <path d="M505.653,20L504.814,20L503.727,24L506.74,24L505.653,20Z" style="fill:rgb(153,221,187);"/>
                        </g>
                        <g transform="matrix(-0.766044,-0.642788,-0.642788,0.766044,907.591,331.624)">
                            <path d="M508.984,20L508.135,20L507.306,23.966L509.813,23.966L508.984,20Z" style="fill:rgb(153,221,187);"/>
                        </g>
                        <path d="M504.772,20.618L503.75,20.618L503.745,20.616L505.884,18.457L511.226,18.459L509.088,20.616L509.088,20.616L509.087,20.617L509.086,20.618L509.085,20.618L506.931,21.697L506.929,21.695L506.927,21.697L504.772,20.618Z" style="fill:rgb(34,187,119);"/>
                        <g transform="matrix(-1,0,0,1,1013.73,0)">
                            <path d="M505.653,20L504.814,20L503.727,24L506.74,24L505.653,20Z" style="fill:rgb(153,221,187);"/>
                        </g>
                        <g transform="matrix(-1,0,0,1,1013.73,0.0337495)">
                            <path d="M508.984,20L508.135,20L507.306,23.966L509.813,23.966L508.984,20Z" style="fill:rgb(153,221,187);"/>
                        </g>
                        <g transform="matrix(0.160714,0,0,0.160714,481.958,17.1091)">
                            <path d="M144.415,20L144.415,16L140.415,16L140.415,24L144.415,20Z" style="fill:rgb(238,238,238);"/>
                        </g>
                        <path d="M506.421,18.457L511.226,18.457L506.421,18.457Z" style="fill:none;stroke:rgb(153,221,187);stroke-width:0.03px;stroke-linecap:butt;"/>
                        <path d="M503.067,16.778L506.418,15.1L506.421,19.289L503.071,20.968L503.071,20.96L503.067,20.964L503.067,16.778Z" style="fill:rgb(153,221,187);"/>
                        <g transform="matrix(1.62941,0,0,1.28037,358.293,3.87495)">
                            <ellipse cx="89.88" cy="11.058" rx="0.385" ry="0.942" style="fill:rgb(8,8,8);"/>
                        </g>
                    </g>
                    <g transform="matrix(-3.98878,0,0,3.98878,2577.9,32.2692)">
                        <g transform="matrix(0.457463,0,0,0.457463,462.321,2.81699)">
                            <circle cx="100" cy="28" r="8" style="fill:rgb(34,187,119);"/>
                        </g>
                        <g transform="matrix(-1,0,0,1,1013.95,0)">
                            <path d="M505.653,20L504.814,20L503.727,24L506.74,24L505.653,20Z" style="fill:rgb(153,221,187);"/>
                        </g>
                        <g transform="matrix(-1,0,0,1,1013.54,0.0337495)">
                            <path d="M508.984,20L508.135,20L507.306,23.966L509.813,23.966L508.984,20Z" style="fill:rgb(153,221,187);"/>
                        </g>
                        <path d="M504.772,20.618L503.75,20.618L503.745,20.616L505.884,18.457L511.226,18.459L509.088,20.616L509.088,20.616L509.087,20.617L509.086,20.618L509.085,20.618L506.931,21.697L506.929,21.695L506.927,21.697L504.772,20.618Z" style="fill:rgb(34,187,119);"/>
                        <g transform="matrix(-1,0,0,1,1013.73,0)">
                            <path d="M505.653,20L504.814,20L503.727,24L506.74,24L505.653,20Z" style="fill:rgb(153,221,187);"/>
                        </g>
                        <g transform="matrix(-1,0,0,1,1013.73,0.0337495)">
                            <path d="M508.984,20L508.135,20L507.306,23.966L509.813,23.966L508.984,20Z" style="fill:rgb(153,221,187);"/>
                        </g>
                        <g transform="matrix(0.160714,0,0,0.160714,481.958,17.1091)">
                            <path d="M144.415,20L144.415,16L140.415,16L140.415,24L144.415,20Z" style="fill:rgb(238,238,238);"/>
                        </g>
                        <path d="M506.421,18.457L511.226,18.457L506.421,18.457Z" style="fill:none;stroke:rgb(153,221,187);stroke-width:0.03px;stroke-linecap:butt;"/>
                        <path d="M503.067,16.778L506.418,15.1L506.421,19.289L503.071,20.968L503.071,20.96L503.067,20.964L503.067,16.778Z" style="fill:rgb(153,221,187);"/>
                        <g transform="matrix(1.62941,0,0,1.28037,358.293,3.87495)">
                            <ellipse cx="89.88" cy="11.058" rx="0.385" ry="0.942" style="fill:rgb(8,8,8);"/>
                        </g>
                    </g>
                    <g transform="matrix(3.98878,0,0,3.98878,-1469.9,160.269)">
                        <g transform="matrix(0.457463,0,0,0.457463,462.321,2.81699)">
                            <circle cx="100" cy="28" r="8" style="fill:rgb(34,187,119);"/>
                        </g>
                        <g transform="matrix(-1,0,0,1,1013.95,0)">
                            <path d="M505.653,20L504.814,20L503.727,24L506.74,24L505.653,20Z" style="fill:rgb(153,221,187);"/>
                        </g>
                        <g transform="matrix(-1,0,0,1,1013.54,0.0337495)">
                            <path d="M508.984,20L508.135,20L507.306,23.966L509.813,23.966L508.984,20Z" style="fill:rgb(153,221,187);"/>
                        </g>
                        <path d="M504.772,20.618L503.75,20.618L503.745,20.616L505.884,18.457L511.226,18.459L509.088,20.616L509.088,20.616L509.087,20.617L509.086,20.618L509.085,20.618L506.931,21.697L506.929,21.695L506.927,21.697L504.772,20.618Z" style="fill:rgb(34,187,119);"/>
                        <g transform="matrix(-1,0,0,1,1013.73,0)">
                            <path d="M505.653,20L504.814,20L503.727,24L506.74,24L505.653,20Z" style="fill:rgb(153,221,187);"/>
                        </g>
                        <g transform="matrix(-1,0,0,1,1013.73,0.0337495)">
                            <path d="M508.984,20L508.135,20L507.306,23.966L509.813,23.966L508.984,20Z" style="fill:rgb(153,221,187);"/>
                        </g>
                        <g transform="matrix(0.160714,0,0,0.160714,481.958,17.1091)">
                            <path d="M144.415,20L144.415,16L140.415,16L140.415,24L144.415,20Z" style="fill:rgb(238,238,238);"/>
                        </g>
                        <path d="M506.421,18.457L511.226,18.457L506.421,18.457Z" style="fill:none;stroke:rgb(153,221,187);stroke-width:0.03px;stroke-linecap:butt;"/>
                        <path d="M503.067,16.778L506.418,15.1L506.421,19.289L503.071,20.968L503.071,20.96L503.067,20.964L503.067,16.778Z" style="fill:rgb(153,221,187);"/>
                        <g transform="matrix(1.62941,0,0,1.28037,358.293,3.87495)">
                            <ellipse cx="89.88" cy="11.058" rx="0.385" ry="0.942" style="fill:rgb(8,8,8);"/>
                        </g>
                    </g>
                    <g transform="matrix(-3.98878,0,0,3.98878,2640.45,32.2692)">
                        <g transform="matrix(0.457463,0,0,0.457463,462.321,2.81699)">
                            <circle cx="100" cy="28" r="8" style="fill:rgb(34,187,119);"/>
                        </g>
                        <g transform="matrix(-1,0,0,1,1013.95,0)">
                            <path d="M505.653,20L504.814,20L503.727,24L506.74,24L505.653,20Z" style="fill:rgb(153,221,187);"/>
                        </g>
                        <g transform="matrix(-1,0,0,1,1013.54,0.0337495)">
                            <path d="M508.984,20L508.135,20L507.306,23.966L509.813,23.966L508.984,20Z" style="fill:rgb(153,221,187);"/>
                        </g>
                        <path d="M504.772,20.618L503.75,20.618L503.745,20.616L505.884,18.457L511.226,18.459L509.088,20.616L509.088,20.616L509.087,20.617L509.086,20.618L509.085,20.618L506.931,21.697L506.929,21.695L506.927,21.697L504.772,20.618Z" style="fill:rgb(34,187,119);"/>
                        <g transform="matrix(-0.707107,0.707107,0.707107,0.707107,851.815,-351.391)">
                            <path d="M505.653,20L504.814,20L503.727,24L506.74,24L505.653,20Z" style="fill:rgb(153,221,187);"/>
                        </g>
                        <g transform="matrix(-0.766044,-0.642788,-0.642788,0.766044,907.419,331.63)">
                            <path d="M508.984,20L508.135,20L507.306,23.966L509.813,23.966L508.984,20Z" style="fill:rgb(153,221,187);"/>
                        </g>
                        <g transform="matrix(0.160714,0,0,0.160714,481.958,17.1091)">
                            <path d="M144.415,20L144.415,16L140.415,16L140.415,24L144.415,20Z" style="fill:rgb(238,238,238);"/>
                        </g>
                        <path d="M506.421,18.457L511.226,18.457L506.421,18.457Z" style="fill:none;stroke:rgb(153,221,187);stroke-width:0.03px;stroke-linecap:butt;"/>
                        <path d="M503.067,16.778L506.418,15.1L506.421,19.289L503.071,20.968L503.071,20.96L503.067,20.964L503.067,16.778Z" style="fill:rgb(153,221,187);"/>
                        <g transform="matrix(1.62941,0,0,1.28037,358.293,3.87495)">
                            <ellipse cx="89.88" cy="11.058" rx="0.385" ry="0.942" style="fill:rgb(8,8,8);"/>
                        </g>
                    </g>
                    <g transform="matrix(3.98878,0,0,3.98878,-1532.45,160.269)">
                        <g transform="matrix(0.457463,0,0,0.457463,462.321,2.81699)">
                            <circle cx="100" cy="28" r="8" style="fill:rgb(34,187,119);"/>
                        </g>
                        <g transform="matrix(-1,0,0,1,1013.95,0)">
                            <path d="M505.653,20L504.814,20L503.727,24L506.74,24L505.653,20Z" style="fill:rgb(153,221,187);"/>
                        </g>
                        <g transform="matrix(-1,0,0,1,1013.54,0.0337495)">
                            <path d="M508.984,20L508.135,20L507.306,23.966L509.813,23.966L508.984,20Z" style="fill:rgb(153,221,187);"/>
                        </g>
                        <path d="M504.772,20.618L503.75,20.618L503.745,20.616L505.884,18.457L511.226,18.459L509.088,20.616L509.088,20.616L509.087,20.617L509.086,20.618L509.085,20.618L506.931,21.697L506.929,21.695L506.927,21.697L504.772,20.618Z" style="fill:rgb(34,187,119);"/>
                        <g transform="matrix(-0.707107,0.707107,0.707107,0.707107,851.815,-351.391)">
                            <path d="M505.653,20L504.814,20L503.727,24L506.74,24L505.653,20Z" style="fill:rgb(153,221,187);"/>
                        </g>
                        <g transform="matrix(-0.766044,-0.642788,-0.642788,0.766044,907.419,331.63)">
                            <path d="M508.984,20L508.135,20L507.306,23.966L509.813,23.966L508.984,20Z" style="fill:rgb(153,221,187);"/>
                        </g>
                        <g transform="matrix(0.160714,0,0,0.160714,481.958,17.1091)">
                            <path d="M144.415,20L144.415,16L140.415,16L140.415,24L144.415,20Z" style="fill:rgb(238,238,238);"/>
                        </g>
                        <path d="M506.421,18.457L511.226,18.457L506.421,18.457Z" style="fill:none;stroke:rgb(153,221,187);stroke-width:0.03px;stroke-linecap:butt;"/>
                        <path d="M503.067,16.778L506.418,15.1L506.421,19.289L503.071,20.968L503.071,20.96L503.067,20.964L503.067,16.778Z" style="fill:rgb(153,221,187);"/>
                        <g transform="matrix(1.62941,0,0,1.28037,358.293,3.87495)">
                            <ellipse cx="89.88" cy="11.058" rx="0.385" ry="0.942" style="fill:rgb(8,8,8);"/>
                        </g>
                    </g>
                    <g transform="matrix(3.35374,0,0,3.35374,181.456,1.70358)">
                        <g transform="matrix(0.545616,0,0,0.545616,37.4384,-6.64948)">
                            <circle cx="100" cy="28" r="8" style="fill:rgb(34,187,119);"/>
                        </g>
                        <g transform="matrix(0.36007,0,0,0.36007,84.7256,9.93451)">
                            <path d="M27.153,5.736L27.159,14.681L20.007,18.264L20.007,18.246L19.993,18.264L12.841,14.681L12.847,5.736L20,9.319L27.153,5.736Z" style="fill:rgb(34,187,119);"/>
                        </g>
                        <g transform="matrix(0.964083,0,0,1,1.78456,-1.42477)">
                            <path d="M90.978,12.848L92.529,20L89.427,20L90.978,12.848Z" style="fill:rgb(153,221,187);"/>
                        </g>
                        <g transform="matrix(0.803839,0,0,0.833787,21.1244,0.710688)">
                            <path d="M90.978,12.848L92.529,20L89.427,20L90.978,12.848Z" style="fill:rgb(153,221,187);"/>
                        </g>
                        <g transform="matrix(0.191684,0,0,0.191684,66.8227,10.3967)">
                            <path d="M144.415,20L144.415,16L140.415,16L140.415,24L144.415,20Z" style="fill:rgb(238,238,238);"/>
                        </g>
                        <g transform="matrix(-0.191684,0,0,0.191684,117.177,10.3967)">
                            <path d="M144.415,20L144.415,16L140.415,16L140.415,24L144.415,20Z" style="fill:rgb(238,238,238);"/>
                        </g>
                        <g transform="matrix(0.558708,0,0,0.558708,80.8258,4.79505)">
                            <path d="M27.153,5.736L27.159,14.681L20.007,18.264L20.007,18.246L19.993,18.264L12.841,14.681L12.847,5.736L20,9.319L27.153,5.736Z" style="fill:rgb(153,221,187);"/>
                        </g>
                        <path d="M88,13.017L92,14.999L96,12.993" style="fill:none;stroke:rgb(34,187,119);stroke-width:0.03px;"/>
                        <g transform="matrix(1.9434,0,0,1.5271,-85.1774,-5.46427)">
                            <ellipse cx="89.88" cy="11.058" rx="0.385" ry="0.942" style="fill:rgb(8,8,8);"/>
                        </g>
                        <g transform="matrix(1.9434,0,0,1.5271,-80.1677,-5.46427)">
                            <ellipse cx="89.88" cy="11.058" rx="0.385" ry="0.942" style="fill:rgb(8,8,8);"/>
                        </g>
                    </g>
                    <g transform="matrix(3.35374,0,0,3.35374,245.456,1.70358)">
                        <g transform="matrix(0.545616,0,0,0.545616,37.4384,-6.64948)">
                            <circle cx="100" cy="28" r="8" style="fill:rgb(34,187,119);"/>
                        </g>
                        <g transform="matrix(0.36007,0,0,0.36007,84.7256,9.93451)">
                            <path d="M27.153,5.736L27.159,14.681L20.007,18.264L20.007,18.246L19.993,18.264L12.841,14.681L12.847,5.736L20,9.319L27.153,5.736Z" style="fill:rgb(34,187,119);"/>
                        </g>
                        <g transform="matrix(0.964083,0,0,1,1.78456,-1.42477)">
                            <path d="M90.978,12.848L92.529,20L89.427,20L90.978,12.848Z" style="fill:rgb(153,221,187);"/>
                        </g>
                        <g transform="matrix(0.964083,0,0,1,6.79426,-1.42477)">
                            <path d="M90.978,12.848L92.529,20L89.427,20L90.978,12.848Z" style="fill:rgb(153,221,187);"/>
                        </g>
                        <g transform="matrix(0.191684,0,0,0.191684,66.8227,10.3967)">
                            <path d="M144.415,20L144.415,16L140.415,16L140.415,24L144.415,20Z" style="fill:rgb(238,238,238);"/>
                        </g>
                        <g transform="matrix(-0.191684,0,0,0.191684,117.177,10.3967)">
                            <path d="M144.415,20L144.415,16L140.415,16L140.415,24L144.415,20Z" style="fill:rgb(238,238,238);"/>
                        </g>
                        <g transform="matrix(0.558708,0,0,0.558708,80.8258,4.79505)">
                            <path d="M27.153,5.736L27.159,14.681L20.007,18.264L20.007,18.246L19.993,18.264L12.841,14.681L12.847,5.736L20,9.319L27.153,5.736Z" style="fill:rgb(153,221,187);"/>
                        </g>
                        <path d="M88,13.017L92,14.999L96,12.993" style="fill:none;stroke:rgb(34,187,119);stroke-width:0.03px;"/>
                        <g transform="matrix(1.9434,0,0,1.5271,-85.1774,-5.46427)">
                            <ellipse cx="89.88" cy="11.058" rx="0.385" ry="0.942" style="fill:rgb(8,8,8);"/>
                        </g>
                        <g transform="matrix(1.9434,0,0,1.5271,-80.1677,-5.46427)">
                            <ellipse cx="89.88" cy="11.058" rx="0.385" ry="0.942" style="fill:rgb(8,8,8);"/>
                        </g>
                    </g>
                    <g transform="matrix(3.35374,0,0,3.35374,309.456,1.70358)">
                        <g transform="matrix(0.545616,0,0,0.545616,37.4384,-6.64948)">
                            <circle cx="100" cy="28" r="8" style="fill:rgb(34,187,119);"/>
                        </g>
                        <g transform="matrix(0.36007,0,0,0.36007,84.7256,9.93451)">
                            <path d="M27.153,5.736L27.159,14.681L20.007,18.264L20.007,18.246L19.993,18.264L12.841,14.681L12.847,5.736L20,9.319L27.153,5.736Z" style="fill:rgb(34,187,119);"/>
                        </g>
                        <g transform="matrix(0.803839,0,0,0.833787,16.1147,0.710688)">
                            <path d="M90.978,12.848L92.529,20L89.427,20L90.978,12.848Z" style="fill:rgb(153,221,187);"/>
                        </g>
                        <g transform="matrix(0.964083,0,0,1,6.79426,-1.42477)">
                            <path d="M90.978,12.848L92.529,20L89.427,20L90.978,12.848Z" style="fill:rgb(153,221,187);"/>
                        </g>
                        <g transform="matrix(0.191684,0,0,0.191684,66.8227,10.3967)">
                            <path d="M144.415,20L144.415,16L140.415,16L140.415,24L144.415,20Z" style="fill:rgb(238,238,238);"/>
                        </g>
                        <g transform="matrix(-0.191684,0,0,0.191684,117.177,10.3967)">
                            <path d="M144.415,20L144.415,16L140.415,16L140.415,24L144.415,20Z" style="fill:rgb(238,238,238);"/>
                        </g>
                        <g transform="matrix(0.558708,0,0,0.558708,80.8258,4.79505)">
                            <path d="M27.153,5.736L27.159,14.681L20.007,18.264L20.007,18.246L19.993,18.264L12.841,14.681L12.847,5.736L20,9.319L27.153,5.736Z" style="fill:rgb(153,221,187);"/>
                        </g>
                        <path d="M88,13.017L92,14.999L96,12.993" style="fill:none;stroke:rgb(34,187,119);stroke-width:0.03px;"/>
                        <g transform="matrix(1.9434,0,0,1.5271,-85.1774,-5.46427)">
                            <ellipse cx="89.88" cy="11.058" rx="0.385" ry="0.942" style="fill:rgb(8,8,8);"/>
                        </g>
                        <g transform="matrix(1.9434,0,0,1.5271,-80.1677,-5.46427)">
                            <ellipse cx="89.88" cy="11.058" rx="0.385" ry="0.942" style="fill:rgb(8,8,8);"/>
                        </g>
                    </g>
                </g>
            </g>
        </g>
    </g>
</svg>
